{"title":"The Day After Tomorrow 2004 BRRIP XviD AC3-FWOLF","uid":9570242,"size":1852065258,"categoryP":"video","categoryS":"movies","magnet":"?xt=urn:btih:68b7dc504eadd42126f90ea30a849382d9fbb69e&amp;dn=The+Day+After+Tomorrow+2004+BRRIP+XviD+AC3-FWOLF&amp;tr=udp%3A%2F%2Ftracker.openbittorrent.com%3A80&amp;tr=udp%3A%2F%2Fopen.demonii.com%3A1337&amp;tr=udp%3A%2F%2Ftracker.coppersurfer.tk%3A6969&amp;tr=udp%3A%2F%2Fexodus.desync.com%3A6969","seeders":1,"leechers":0,"uploader":"sakhslitsa","files":28,"time":1391617473,"description":" &lt;a href=&quot;http://www.imdb.com/title/tt0319262/&quot; rel=&quot;nofollow&quot; target=&quot;_NEW&quot;&gt;http://www.imdb.com/title/tt0319262/&lt;/a&gt;\n\n\nFormat : AVI\nFormat/Info : Audio Video Interleave\nFile size : 1.69 GiB\nDuration : 2h 3mn\nOverall bit rate : 1 955 Kbps\n\nVideo\nID : 0\nFormat : MPEG-4 Visual\nFormat profile : Advanced Simple@L5\nFormat settings, BVOP : 2\nFormat settings, QPel : No\nFormat settings, GMC : No warppoints\nFormat settings, Matrix : Default (H.263)\nCodec ID : XVID\nCodec ID/Hint : XviD\nDuration : 2h 3mn\nBit rate : 1 500 Kbps\nWidth : 720 pixels\nHeight : 304 pixels\nDisplay aspect ratio : 2.35:1\nFrame rate : 23.976 fps\nColor space : YUV\nChroma subsampling : 4:2:0\nBit depth : 8 bits\nScan type : Progressive\nCompression mode : Lossy\nBits/(Pixel*Frame) : 0.286\nStream size : 1.30 GiB (77%)\nWriting library : XviD 1.2.1 (UTC 2008-12-04)\n\nAudio\nID : 1\nFormat : AC-3\nFormat/Info : Audio Coding 3\nMode extension : CM (complete main)\nFormat settings, Endianness : Big\nCodec ID : 2000\nDuration : 2h 3mn\nBit rate mode : Constant\nBit rate : 448 Kbps\nChannel(s) : 6 channels\nChannel positions : Front: L C R, Side: L R, LFE\nSampling rate : 48.0 KHz\nBit depth : 16 bits\nCompression mode : Lossy\nStream size : 396 MiB (23%)\nAlignment : Aligned on interleaves\nInterleave, duration : 64 ms (1.53 video frames)\nInterleave, preload duration : 192 ms\n\n\nEncoded....................FWOLF\n\nSource..................... BluRay 720p DTS x264-3Li (Thanks!)\n\nSample.....................Yes\n\nSubs.......................(idx)...\n\nSubs.......................(srt) ...Bulgarian,Chinese,Croatian,Czech,Dutch\nEnglish,Farsi,Finnish,French,German,Greek.\nIndonesian,Norwegian,Polish\nPortuguese,Romanian,Russian,Serbian,Slovenian\nSpanish,Swedish,Turkish,Vietnamese\n\n\nGreetz To: PsiX | Blacksheep | CFR | tomcat-12...\n.....and all P2P Encoders and Groups.....","torrent":{"xt":"urn:btih:68b7dc504eadd42126f90ea30a849382d9fbb69e","amp;dn":"The+Day+After+Tomorrow+2004+BRRIP+XviD+AC3-FWOLF","amp;tr":["udp%3A%2F%2Ftracker.openbittorrent.com%3A80","udp%3A%2F%2Fopen.demonii.com%3A1337","udp%3A%2F%2Ftracker.coppersurfer.tk%3A6969","udp%3A%2F%2Fexodus.desync.com%3A6969"],"infoHash":"68b7dc504eadd42126f90ea30a849382d9fbb69e","infoHashBuffer":{"type":"Buffer","data":[104,183,220,80,78,173,212,33,38,249,14,163,10,132,147,130,217,251,182,158]},"announce":[],"urlList":[]}}